<svg version="1.0" xmlns="http://www.w3.org/2000/svg" xmlns:xlink="http://www.w3.org/1999/xlink" viewBox="0 0 340 250" color-interpolation-filters="sRGB" style="margin:auto"><g fill="#bf817f"><g transform="translate(65.14 78.333)"><path fill="none" d="M0 0h60v93.334H0z"/><svg filter="url(#prefix__a)" width="60" height="93.334" overflow="visible"><svg xmlns="http://www.w3.org/2000/svg" viewBox="7 2 18 28"><path d="M20.85 13.475A1 1 0 0020 13h-8a1 1 0 00-.895 1.447L11.882 16h8.236l.776-1.553a1 1 0 00-.043-.972zM18.653 12l-1.67-9.179a1 1 0 00-1.967 0L13.347 12h5.306zM11.599 22.667l-1.2-.8a32.703 32.703 0 01-.916 2.21l2.116-1.41zM18.875 17.816L20.099 17h-2.448zM20.713 19.041c-.095-.355-.178-.715-.262-1.074l-.675.45.937.624zM11.55 17.967c-.085.36-.168.719-.263 1.074l.937-.624-.675-.45zM13.125 17.816L14.349 17h-2.448zM15.5 19.399v-1.965l-1.474.983zM16.5 17.434v1.965l1.474-.982zM18.875 19.017L17.401 20h2.948zM14.599 20l-1.474-.983-1.474.983zM16.5 21.267v2.799l2.099-1.399zM10.901 21l1.599 1.066L14.099 21zM12.5 23.267l-2.826 1.884 2.29 3.816c.451-1.3 2.147-2.947 3.518-3.712L12.5 23.267zM22.326 25.151L19.5 23.267l-2.982 1.988c1.371.765 3.067 2.412 3.519 3.712l2.29-3.816zM24.868 28.504l-.982-1.719c-.23-.402-.426-.818-.637-1.228l-2.59 4.316A.608.608 0 0021 30h3a.999.999 0 00.868-1.496zM8.751 25.557c-.211.41-.408.826-.637 1.228l-.982 1.719A1 1 0 008 30h3c.12 0 .233-.052.341-.127l-2.59-4.316zM15.5 21.267l-2.099 1.4 2.099 1.399zM17.901 21l1.599 1.066L21.099 21zM21.602 21.866l-1.2.8 2.115 1.411c-.33-.727-.64-1.463-.915-2.21z"/></svg></svg><defs><filter id="prefix__a"><feColorMatrix values="0 0 0 0 0.609375 0 0 0 0 0.38671875 0 0 0 0 0.46875 0 0 0 1 0"/></filter></defs></g><path d="M154.35 115.544h-11.81l-.05 3.9q0 1.42 1.27 1.86l.73.15h9.86v-5.91zm1.96 0v5.91h9.57q1.46 0 1.95-1.32v-.05l.1-.64.05-3.9h-11.67zm0-2h11.72l.04-3.86q0-1.37-1.22-1.86-.24-.09-.48-.14h-10.06v5.86zm-1.96 0v-5.86h-9.76q-1.42 0-1.86 1.32l-.14.68-.05 3.86h11.81zm11.53 9.91h-6.94q6.45 8.74 17.24 11.57.68.15.68.88v.19q-.24.93-.97.88h-.15q-11.82-3.07-18.65-12.74-.25-.29-.15-.73v-.05h-.63v16.31q0 .63-.69.83l-.19.05q-.93 0-1.08-.74v-16.4q-6.54 10.79-21.04 15.82-.64.24-.98-.39l-.1-.15q-.09-.29-.09-.49 0-.54.48-.78.05-.05.1-.05 13.04-4.59 19.24-14.01h-7.47q-2.25 0-3.47-1.95-.53-.98-.53-2.01v-.05l.09-9.76q0-2.25 1.96-3.37.92-.64 2.1-.64h9.71v-3.8h-21.19q-.63 0-.83-.64l-.05-.05v-.19q0-.83.69-1.03.09-.05.19-.05h21.1l.09-4.64q0-.73.74-.87h.14q.88 0 1.03.68l.05.05v4.78h21.14q.63 0 .83.64l.05.05v.19q0 .88-.69 1.08h-21.33v3.8h9.81q2.34 0 3.47 2.06.49.92.49 1.95l-.15 9.76q-.05 2.3-2.05 3.47-.88.54-2 .54zm48.53-11.23h-17.82q-1.42 0-1.9 1.32l-.1.68v4.05q0 1.42 1.27 1.86v.05h.05l.68.09h17.48q1.42 0 1.86-1.27l.14-.73.05-4.05q0-1.37-1.22-1.81-.24-.14-.49-.19zm-.39 10.06h-7.71l-.05 12.11q0 6.15-5.91 6.15-.88 0-1.9-.15-.83-.1-.88-.83v-.1q0-.83.68-1.02l.29-.05q5.67.34 5.72-3.91v-12.2h-7.67q-2.39 0-3.56-2.1-.44-.83-.44-1.86v-4.1q0-2.34 2-3.47.88-.53 2-.53h17.58q2.29 0 3.42 1.95.53.98.53 2.05l-.05 4.05q0 2.3-2 3.47-.93.54-2.05.54zm-20.8 4.29q.39-.63 1.12-.34l.1.05q.83.44.54 1.22l-.05.1q-3.86 6.1-11.57 9.37-.69.3-1.03-.34l-.05-.05-.05-.09q-.14-.35-.14-.59 0-.49.49-.73l.09-.05q7.13-2.98 10.55-8.55zm21.88 1.32q-.74-.49-.25-1.22l.05-.05q.54-.78 1.27-.44l.05.05q5.27 3.71 8.79 8.94.44.78-.25 1.22l-.05.05q-.83.48-1.31-.1l-.05-.1q-3.27-4.83-8.25-8.35zm-8.79-32.62l-.05 6.35h21.04q.74 0 .88.78v.15q0 .88-.68 1.03l-.05.04h-44.39q-.73 0-.87-.73v-.14q0-.93.68-1.08l.19-.05h21.2l.09-6.35q0-.73.74-.87h.14q.88 0 1.03.68l.05.05v.14zm55.12 30.13q-.48-1.27-1.8-1.27h-8.79q-1.42 0-1.86 1.32l-.14.68v3.62q0 .97.97.97l13.38.05q1.22 0 1.71-1.17l.73-2.25q.25-.83 1.08-.63h.09q.83.34.79 1.07 0 .05-.05.15l-.74 2.3q-.92 2.53-3.61 2.53l-13.38-.04q-2.98 0-2.98-2.98v-3.62q0-2.24 1.96-3.46.92-.54 2.05-.54h8.79q2.24 0 3.46 1.95.54.98.54 2v.05q-1.02 3.13-5.57 2.35-.73 0-.87-.73v-.15q0-.93.68-1.08l.05-.04h.14q2.89.14 3.37-1.08zm-1.02-23.68q-.49-.64.19-1.17l.05-.05q.78-.59 1.37.05l.05.1q2.88 4.05 4.05 8.78.15.79-.54 1.08l-.14.05q-.98.14-1.22-.59l-.05-.1q-1.08-4.39-3.76-8.15zm-12.21-.64q.25-.68.93-.53h.1l.09.05q.88.29.79 1.02 0 .05-.1.1v.05q-2.2 5.71-4.84 9.32-.48.69-1.22.15-.78-.49-.44-1.22l.1-.15q2.54-3.37 4.59-8.79zm5.37 12.16h3.57q-.69-1.95-1.18-3.85l-.04-.15h-1.27q-.49 2.2-1.08 4zm.88-14.4h-14.94q-1.37 0-1.81 1.32l-.19.68.14 33.35q0 1.42 1.27 1.86l.69.14h31.25q1.41 0 1.85-1.32l.15-.68v-33.35q0-1.42-1.27-1.85l-.73-.15h-16.02q.83.15.88.83v.05q-.15 3.76-.68 7.52h7.37q.78 0 .93.73v.15q0 .92-.69 1.07l-.04.05h-4.64q.49 1.9 1.32 4h8.34q.74 0 .88.74v.14q0 .93-.68 1.08l-.05.05h-7.62q2.59 4.93 6.99 7.37.73.39.44 1.12l-.05.1q-.34.78-1.17.63l-.15-.05q-5.32-2.97-8.25-9.17h-5.13q-3.03 7.61-9.18 11.37-.68.44-1.12-.24l-.05-.05q-.49-.88.19-1.32l.05-.05q5.23-3.37 8.01-9.71h-7.28q-.73 0-.87-.74v-.19q0-.88.68-1.03l.05-.05h8.15q.49-1.36 1.17-4h-4.49q-.78 0-.93-.73v-.15q0-.98.74-1.12h5.03q.58-3.52.73-7.52 0-.69.73-.88zm16.41 39.35h-31.25q-2.25 0-3.42-1.95-.54-.93-.54-2v-.05l-.1-33.35q0-2.25 1.91-3.47.98-.53 2.05-.53h31.35q2.29 0 3.46 1.95.54.93.54 2v33.4q0 2.25-1.95 3.47-.93.53-2.05.53z" /><g fill="#9c6378"><path d="M137.14 150.619h19.25v1h-19.25zM250.61 150.619h19.25v1h-19.25zM162.292 147.866h-2.9v-.99h6.94v.99h-2.91v7.59h-1.13v-7.59zm11.86 3.32q-.18-3.37-3-3.56-2.86.14-3 3.56.14 3.33 3 3.47 2.82-.18 3-3.47zm1.18 0q-.29 4.27-4.18 4.41-3.93-.14-4.22-4.41.24-4.45 4.22-4.54 3.89.14 4.18 4.54zm3.89-.04l-1.36 1.26v3.05h-1.18v-8.58h1.18v4.17l4.17-4.17h1.64l-3.61 3.47 3.7 5.11h-1.54l-3-4.31zm12.37-4.27l-3.23 5.11v3.47h-1.18v-3.47l-3.23-5.11h1.36l2.44 4.13 2.48-4.13h1.36zm7.83 4.31q-.19-3.37-3-3.56-2.86.14-3 3.56.14 3.33 3 3.47 2.81-.18 3-3.47zm1.17 0q-.28 4.27-4.17 4.41-3.94-.14-4.22-4.41.23-4.45 4.22-4.54 3.89.14 4.17 4.54zm11.86-1.78h-1.12q-.43-1.73-2.4-1.78-2.71.14-2.81 3.47 0 3.56 2.86 3.56 1.97-.04 2.44-2.39h1.12q-.51 3.24-3.79 3.33-3.75-.14-3.85-4.45.19-4.32 4.03-4.5 3.05.09 3.52 2.76zm1.64-2.53h1.17v8.58h-1.17v-8.58zm7.27 4.88h-2.82v3.7h-1.17v-8.58h3.99q2.86 0 2.86 2.3 0 1.4-1.22 2.06 1.03.28 1.03 1.64l.09 1.55q-.04.65.42.84v.19h-1.45q-.14-.61-.19-2.16.05-1.54-1.54-1.54zm.09-3.94h-2.91v2.95h2.72q1.74 0 1.74-1.5 0-1.45-1.55-1.45zm11.58 1.59h-1.13q-.42-1.73-2.39-1.78-2.72.14-2.81 3.47 0 3.56 2.86 3.56 1.97-.04 2.44-2.39h1.12q-.51 3.24-3.79 3.33-3.75-.14-3.85-4.45.19-4.32 4.03-4.5 3.05.09 3.52 2.76zm1.45-2.53h1.17v7.55h4.36v1.03h-5.53v-8.58zm7.97 7.55h5.16v1.03h-6.33v-8.58h6.23v.99h-5.06v2.67h4.69v1.03h-4.69v2.86z"/></g></g></svg>