<?xml version="1.0" standalone="no"?>
<!DOCTYPE svg PUBLIC "-//W3C//DTD SVG 20010904//EN"
 "http://www.w3.org/TR/2001/REC-SVG-20010904/DTD/svg10.dtd">
<svg version="1.0" xmlns="http://www.w3.org/2000/svg"
 width="960.000000pt" height="960.000000pt" viewBox="0 0 960.000000 960.000000"
 preserveAspectRatio="xMidYMid meet">
<metadata>
Created by potrace 1.14, written by Peter Selinger 2001-2017
</metadata>
<g transform="translate(0.000000,960.000000) scale(0.100000,-0.100000)"
fill="#000000" stroke="none">
<path d="M4704 9585 c-138 -44 -226 -151 -248 -301 -4 -22 -9 -51 -11 -64 -3
-14 -7 -38 -10 -55 -3 -16 -10 -52 -15 -80 -5 -27 -12 -63 -15 -80 -11 -65
-16 -92 -25 -140 -17 -83 -19 -98 -25 -140 -3 -22 -8 -47 -10 -55 -2 -8 -7
-30 -10 -47 -10 -61 -14 -88 -25 -143 -6 -30 -13 -66 -15 -80 -4 -28 -12 -72
-20 -110 -9 -44 -17 -84 -20 -110 -3 -24 -10 -59 -19 -105 -2 -11 -7 -40 -11
-65 -4 -25 -9 -54 -11 -65 -2 -11 -6 -31 -9 -45 -3 -14 -7 -36 -10 -50 -8 -40
-17 -84 -20 -105 -4 -27 -45 -257 -51 -287 -2 -13 -7 -36 -10 -53 -3 -16 -16
-91 -30 -165 -14 -74 -27 -150 -30 -169 -3 -18 -8 -43 -10 -55 -2 -11 -9 -48
-14 -81 -6 -33 -15 -80 -20 -105 -6 -25 -12 -61 -15 -80 -3 -19 -9 -55 -14
-80 -5 -25 -12 -61 -15 -80 -8 -47 -15 -85 -26 -145 -5 -27 -12 -63 -14 -79
-3 -16 -10 -52 -15 -80 -6 -28 -12 -65 -15 -83 l-4 -32 909 0 909 0 -4 22
c-11 50 -24 124 -31 173 -2 11 -8 45 -14 75 -6 30 -13 70 -16 89 -3 19 -8 42
-10 50 -2 8 -6 33 -10 55 -3 22 -8 47 -10 55 -3 8 -7 31 -9 50 -3 19 -8 46
-11 60 -3 14 -7 40 -10 59 -2 18 -7 41 -9 50 -3 9 -7 32 -10 51 -3 19 -8 46
-11 60 -3 14 -8 39 -10 55 -3 17 -10 57 -16 90 -6 33 -13 71 -15 85 -3 14 -13
72 -24 130 -11 58 -22 119 -24 135 -3 17 -8 43 -12 58 -3 16 -7 38 -9 50 -1
12 -5 33 -9 47 -3 14 -8 41 -11 60 -5 33 -14 88 -30 170 -4 19 -8 44 -9 55 -2
11 -6 34 -9 50 -4 17 -9 44 -12 60 -3 17 -7 41 -10 55 -3 14 -7 39 -10 55 -2
17 -12 68 -20 115 -9 47 -18 99 -21 115 -2 17 -7 39 -11 49 -3 11 -7 33 -9 50
-2 17 -6 42 -8 56 -3 14 -12 61 -20 105 -8 44 -17 94 -20 110 -10 51 -38 209
-42 230 -1 11 -10 58 -19 105 -9 47 -18 96 -20 110 -3 22 -22 118 -29 145 -6
25 -48 93 -78 127 -36 39 -144 102 -159 92 -5 -3 -9 -2 -9 3 0 13 -132 12
-176 -2z"/>
<path d="M3316 5809 c-122 -46 -206 -146 -224 -267 -16 -105 -4 -142 150 -450
78 -156 146 -286 151 -289 6 -4 228 -5 492 -2 8 0 62 0 150 -1 11 0 52 1 90 1
39 1 77 1 85 0 43 -3 114 0 121 5 5 3 9 2 9 -3 0 -4 84 -7 187 -6 104 1 235 2
293 2 58 0 121 1 140 2 19 1 41 1 48 0 6 -1 18 -1 25 -2 23 -1 162 0 182 1 11
1 25 1 30 1 65 -1 617 -2 648 -1 43 1 56 1 112 1 33 0 65 0 70 0 6 0 38 0 73
-1 35 -1 64 -1 66 1 26 38 287 585 292 614 35 182 -64 345 -245 400 -36 12
-295 14 -1470 13 -1357 0 -1428 -1 -1475 -19z"/>
<path d="M3410 4448 c0 -5 10 -13 23 -18 12 -6 42 -26 67 -44 25 -19 48 -35
52 -35 9 -1 96 -60 116 -78 7 -7 17 -13 22 -13 5 0 15 -6 22 -13 7 -7 34 -26
60 -41 l46 -27 199 132 c109 72 201 135 206 138 4 4 -177 7 -403 8 -225 0
-410 -4 -410 -9z"/>
<path d="M5387 4443 c3 -7 9 -13 13 -13 11 0 134 -83 138 -92 2 -5 7 -8 11 -8
5 0 58 -34 120 -75 61 -41 114 -75 117 -75 2 0 17 9 32 19 15 10 101 68 192
128 91 60 166 113 168 119 1 5 -154 9 -397 10 -330 1 -398 -1 -394 -13z"/>
<path d="M4450 4191 c-91 -61 -170 -114 -176 -119 -6 -5 -40 -28 -77 -52 -37
-23 -67 -45 -67 -49 0 -4 15 -15 33 -26 17 -10 34 -21 37 -24 9 -10 69 -51 75
-51 6 0 66 -40 75 -51 3 -3 23 -16 45 -29 22 -13 42 -27 45 -30 3 -3 37 -25
75 -50 39 -25 72 -47 75 -51 3 -3 13 -8 22 -12 16 -6 17 16 17 323 0 182 -4
330 -7 330 -4 0 -81 -49 -172 -109z"/>
<path d="M4971 3970 c0 -181 2 -330 4 -330 5 0 146 91 155 100 3 3 43 30 90
60 47 30 90 59 97 65 6 5 43 30 82 55 39 25 71 48 71 51 0 6 -482 329 -492
329 -4 0 -7 -148 -7 -330z"/>
<path d="M3260 4073 c-6 -27 -14 -59 -17 -73 -2 -14 -15 -70 -29 -124 -13 -54
-24 -103 -24 -107 0 -9 294 184 304 199 4 7 -202 152 -217 152 -3 0 -10 -21
-17 -47z"/>
<path d="M6208 4047 c-60 -40 -108 -74 -108 -77 0 -3 70 -51 156 -107 155
-103 155 -103 149 -70 -4 17 -7 39 -9 47 -1 9 -5 20 -8 25 -5 9 -10 31 -24
104 -11 60 -37 151 -43 151 -3 -1 -54 -33 -113 -73z"/>
<path d="M3565 3600 c-132 -88 -241 -163 -242 -167 -3 -7 960 -7 980 0 5 1
-49 41 -120 87 -70 46 -129 88 -131 92 -2 4 -7 8 -12 8 -4 0 -54 31 -111 70
-57 38 -108 70 -114 70 -5 0 -118 -72 -250 -160z"/>
<path d="M5756 3751 c-5 -8 -420 -287 -461 -309 -22 -12 16 -13 644 -12 184 0
336 2 338 4 2 1 -88 63 -199 136 -112 74 -208 139 -213 145 -16 15 -75 45 -90
45 -8 0 -16 -4 -19 -9z"/>
<path d="M3064 3078 c-3 -4 0 -8 6 -8 7 0 29 -13 50 -30 21 -16 41 -30 44 -30
6 0 64 -38 76 -50 12 -12 70 -50 76 -50 3 0 23 -13 44 -30 21 -16 40 -30 43
-30 3 0 47 -29 98 -64 53 -35 101 -61 109 -58 8 3 38 22 67 44 29 21 54 38 57
38 3 0 50 32 106 70 56 39 102 70 104 70 5 0 197 130 194 131 -13 7 -1070 3
-1074 -3z"/>
<path d="M5490 3062 c17 -13 88 -62 158 -108 70 -45 132 -87 137 -91 6 -5 28
-20 50 -33 22 -13 42 -27 45 -30 15 -18 117 -74 129 -72 8 2 38 21 67 43 29
21 55 39 58 39 4 0 135 87 161 107 6 4 63 43 128 86 64 43 117 79 117 81 0 1
-243 2 -541 2 l-540 0 31 -24z"/>
<path d="M4264 2752 l-352 -235 27 -22 c14 -12 44 -32 66 -45 22 -13 42 -26
45 -29 9 -11 69 -51 75 -51 5 0 64 -39 75 -50 10 -10 69 -50 74 -50 5 0 96
-60 106 -70 3 -3 12 -9 21 -15 28 -18 103 -67 161 -106 32 -22 60 -39 62 -39
3 0 5 214 5 475 0 261 -3 475 -7 474 -4 0 -165 -107 -358 -237z"/>
<path d="M4976 2981 c-9 -14 -6 -941 3 -941 5 0 14 7 21 15 7 8 18 15 24 15 7
0 21 8 32 18 10 9 44 33 74 52 30 19 57 37 60 40 3 3 43 30 90 60 47 30 87 57
90 60 3 3 76 52 162 109 l158 104 -54 38 c-30 22 -59 39 -64 39 -6 0 -12 4
-14 8 -4 12 -95 72 -107 72 -6 0 -11 4 -11 8 0 5 -16 17 -35 28 -19 10 -35 22
-35 26 0 5 -4 8 -9 8 -4 0 -92 56 -194 125 -102 68 -188 121 -191 116z"/>
<path d="M2800 2582 c-46 -114 -93 -231 -106 -260 -13 -29 -24 -55 -24 -57 0
-4 -40 -94 -80 -180 -22 -45 -19 -56 8 -32 10 10 21 17 25 17 6 0 96 59 107
70 3 3 57 39 120 80 63 41 117 77 120 80 3 3 30 21 60 40 30 19 60 38 65 43
29 22 127 87 133 87 4 1 19 11 34 23 l28 22 -111 75 c-61 41 -120 78 -130 82
-11 4 -19 12 -19 18 0 5 -4 10 -9 10 -6 0 -39 20 -74 44 l-65 45 -82 -207z"/>
<path d="M6510 2649 c-107 -72 -196 -132 -198 -134 -1 -1 28 -22 65 -46 37
-24 70 -47 71 -51 2 -5 9 -8 16 -8 7 0 21 -8 32 -18 10 -9 44 -33 74 -52 30
-19 57 -38 58 -42 2 -5 10 -8 17 -8 7 0 15 -3 17 -7 2 -5 21 -20 43 -34 22
-14 102 -68 178 -118 76 -51 140 -91 143 -89 2 3 -5 23 -16 45 -28 58 -102
226 -105 238 -1 6 -12 33 -24 60 -13 28 -30 68 -38 90 -8 22 -21 54 -28 70
-18 41 -60 152 -76 198 -7 20 -18 37 -24 37 -5 0 -98 -59 -205 -131z"/>
<path d="M3128 1994 c-260 -174 -478 -320 -484 -325 -8 -7 20 -62 97 -190 60
-100 109 -185 109 -190 0 -5 5 -9 10 -9 6 0 10 -4 10 -9 0 -5 23 -46 50 -90
28 -44 50 -83 50 -86 0 -3 9 -18 19 -33 26 -37 75 -116 76 -122 1 -6 29 -52
56 -92 11 -15 19 -30 19 -32 0 -3 29 -54 65 -113 81 -134 72 -118 145 -241
l62 -103 61 123 c69 137 114 206 231 353 157 197 391 424 585 569 31 22 58 43
61 46 10 11 141 100 147 100 3 0 21 11 39 25 18 14 36 25 41 25 4 0 16 7 26
14 16 12 -33 48 -492 355 l-511 340 -472 -315z"/>
<path d="M5486 1967 l-508 -340 53 -30 c30 -17 56 -33 59 -36 3 -4 37 -27 76
-53 39 -26 111 -79 160 -117 83 -65 102 -80 179 -147 69 -60 252 -244 308
-309 33 -38 63 -72 67 -75 3 -3 17 -21 30 -40 13 -19 27 -37 31 -40 23 -17
158 -236 198 -321 49 -104 49 -104 77 -54 42 77 68 121 73 125 14 11 41 60 34
60 -5 0 -3 4 2 8 6 4 39 54 73 112 35 58 67 112 72 120 6 8 46 76 90 150 44
74 85 142 90 150 5 8 19 31 30 50 11 19 25 42 30 50 5 8 66 108 134 222 140
234 136 205 31 274 -33 21 -64 42 -70 47 -18 14 -739 492 -775 513 l-35 21
-509 -340z"/>
<path d="M2230 1358 c-45 -90 -96 -188 -113 -218 -51 -93 -166 -294 -177 -310
-6 -8 -17 -28 -25 -45 -9 -16 -24 -43 -34 -60 -10 -16 -28 -47 -40 -68 -12
-21 -40 -70 -62 -109 -107 -190 -74 -378 87 -489 85 -58 87 -58 696 -59 542 0
559 0 598 20 22 11 40 23 40 25 0 3 -12 24 -27 48 -15 23 -28 44 -28 47 0 3
-25 45 -56 95 -60 97 -118 194 -134 226 -5 10 -13 19 -17 19 -5 0 -8 4 -8 10
0 8 -83 151 -128 220 -9 14 -17 27 -17 30 0 3 -8 16 -17 30 -22 34 -99 160
-112 185 -6 11 -52 87 -101 168 -50 81 -94 155 -100 165 -35 61 -138 232 -139
232 -2 0 -40 -73 -86 -162z"/>
<path d="M7194 1373 c-49 -82 -90 -154 -92 -160 -2 -7 -8 -13 -13 -13 -5 0 -9
-4 -9 -10 0 -5 -51 -93 -112 -195 -62 -102 -118 -195 -125 -207 -7 -13 -71
-120 -143 -238 -71 -118 -141 -235 -155 -260 -14 -25 -33 -57 -43 -72 -9 -15
-36 -60 -60 -100 l-43 -72 23 -18 c13 -9 41 -20 63 -23 22 -4 290 -5 595 -3
l555 3 63 34 c116 63 184 172 185 296 0 108 10 86 -203 460 -205 359 -224 393
-319 579 -39 77 -73 141 -75 143 -2 2 -43 -63 -92 -144z"/>
</g>
</svg>
