<svg fill="#bf817f" filter="url(#prefix__a)" width="40" height="60" overflow="visible"><svg xmlns="http://www.w3.org/2000/svg" viewBox="7 2 18 28"><path d="M20.85 13.475A1 1 0 0020 13h-8a1 1 0 00-.895 1.447L11.882 16h8.236l.776-1.553a1 1 0 00-.043-.972zM18.653 12l-1.67-9.179a1 1 0 00-1.967 0L13.347 12h5.306zM11.599 22.667l-1.2-.8a32.703 32.703 0 01-.916 2.21l2.116-1.41zM18.875 17.816L20.099 17h-2.448zM20.713 19.041c-.095-.355-.178-.715-.262-1.074l-.675.45.937.624zM11.55 17.967c-.085.36-.168.719-.263 1.074l.937-.624-.675-.45zM13.125 17.816L14.349 17h-2.448zM15.5 19.399v-1.965l-1.474.983zM16.5 17.434v1.965l1.474-.982zM18.875 19.017L17.401 20h2.948zM14.599 20l-1.474-.983-1.474.983zM16.5 21.267v2.799l2.099-1.399zM10.901 21l1.599 1.066L14.099 21zM12.5 23.267l-2.826 1.884 2.29 3.816c.451-1.3 2.147-2.947 3.518-3.712L12.5 23.267zM22.326 25.151L19.5 23.267l-2.982 1.988c1.371.765 3.067 2.412 3.519 3.712l2.29-3.816zM24.868 28.504l-.982-1.719c-.23-.402-.426-.818-.637-1.228l-2.59 4.316A.608.608 0 0021 30h3a.999.999 0 00.868-1.496zM8.751 25.557c-.211.41-.408.826-.637 1.228l-.982 1.719A1 1 0 008 30h3c.12 0 .233-.052.341-.127l-2.59-4.316zM15.5 21.267l-2.099 1.4 2.099 1.399zM17.901 21l1.599 1.066L21.099 21zM21.602 21.866l-1.2.8 2.115 1.411c-.33-.727-.64-1.463-.915-2.21z"/></svg></svg>